<svg t="1715559800847" class="icon" viewBox="0 0 1024 1024" version="1.1" xmlns="http://www.w3.org/2000/svg" p-id="4265" width="48" height="48"><path d="M511.981 919.836c-141.483 0-284.262-38.489-284.262-124.469 0-67.137 97.767-108.793 188.631-119.015l4.959-0.573-125.575-201.677c-4.044-7.248-7.857-14.991-11.252-22.812l-3.318-6.714-0.533-2.67c-11.024-28.647-16.633-58.669-16.633-89.146 0-137.058 111.233-248.595 247.947-248.595 136.715 0 247.947 111.537 247.947 248.595 0 30.516-5.607 60.499-16.67 89.146l-1.678 4.31h0.153l-1.297 2.631c-3.623 8.545-7.629 16.746-11.978 24.528L511.754 833.929l-51.306-84.073-1.946 0.191C375.383 757.18 322.36 780.182 308.474 793l-2.403 2.366 2.518 2.326c18.158 16.898 87.85 43.601 198.396 44.402h9.879c110.355-0.764 180.201-27.427 198.51-44.287l2.594-2.366-2.631-2.326c-10.147-9.002-47.109-26.779-103.985-37.23l43.677-70.112c91.131 20.598 141.254 59.47 141.254 109.631-0.038 85.942-142.78 124.431-284.3 124.431z m0-701.196c-58.286 0-105.701 47.568-105.701 106.046 0 58.401 47.414 105.969 105.701 105.969 58.324 0 105.778-47.53 105.778-105.969 0-58.477-47.453-106.046-105.778-106.046z m0 0z" p-id="4266" fill="#d4237a"></path></svg>